<svg width="727" height="440" viewBox="0 0 727 440" fill="none" xmlns="http://www.w3.org/2000/svg">
<rect width="205.101" height="205.101" rx="20" fill="black"/>
<rect x="57.7749" y="233.988" width="205.101" height="205.101" rx="20" fill="black"/>
<rect x="232.062" width="205.101" height="205.101" rx="20" fill="black"/>
<rect x="289.837" y="233.988" width="205.101" height="205.101" rx="20" fill="black"/>
<rect x="464.125" width="205.101" height="205.101" rx="20" fill="black"/>
<rect x="521.899" y="233.988" width="205.101" height="205.101" rx="20" fill="black"/>
<path d="M577 336.818C575.343 336.818 574 335.475 574 333.818V270C574 268.343 575.343 267 577 267H621.318C622.975 267 624.318 268.343 624.318 270V279.273C624.318 280.93 622.975 282.273 621.318 282.273H595.955C594.298 282.273 592.955 283.616 592.955 285.273V291.273C592.955 292.93 594.298 294.273 595.955 294.273H618.727C620.384 294.273 621.727 295.616 621.727 297.273V306.545C621.727 308.202 620.384 309.545 618.727 309.545H595.955C594.298 309.545 592.955 310.889 592.955 312.545V318.545C592.955 320.202 594.298 321.545 595.955 321.545H621.182C622.839 321.545 624.182 322.889 624.182 324.545V333.818C624.182 335.475 622.839 336.818 621.182 336.818H577Z" fill="white"/>
<path d="M345 336.818C343.343 336.818 342 335.475 342 333.818V270C342 268.343 343.343 267 345 267H389.318C390.975 267 392.318 268.343 392.318 270V279.273C392.318 280.93 390.975 282.273 389.318 282.273H363.955C362.298 282.273 360.955 283.616 360.955 285.273V291.273C360.955 292.93 362.298 294.273 363.955 294.273H386.727C388.384 294.273 389.727 295.616 389.727 297.273V306.545C389.727 308.202 388.384 309.545 386.727 309.545H363.955C362.298 309.545 360.955 310.889 360.955 312.545V318.545C360.955 320.202 362.298 321.545 363.955 321.545H389.182C390.839 321.545 392.182 322.889 392.182 324.545V333.818C392.182 335.475 390.839 336.818 389.182 336.818H345Z" fill="white"/>
<path d="M113 336.818C111.343 336.818 110 335.475 110 333.818V270C110 268.343 111.343 267 113 267H157.318C158.975 267 160.318 268.343 160.318 270V279.273C160.318 280.93 158.975 282.273 157.318 282.273H131.955C130.298 282.273 128.955 283.616 128.955 285.273V291.273C128.955 292.93 130.298 294.273 131.955 294.273H154.727C156.384 294.273 157.727 295.616 157.727 297.273V306.545C157.727 308.202 156.384 309.545 154.727 309.545H131.955C130.298 309.545 128.955 310.889 128.955 312.545V318.545C128.955 320.202 130.298 321.545 131.955 321.545H157.182C158.839 321.545 160.182 322.889 160.182 324.545V333.818C160.182 335.475 158.839 336.818 157.182 336.818H113Z" fill="white"/>
<path d="M514 102.818C512.343 102.818 511 101.475 511 99.8182V36C511 34.3432 512.343 33 514 33H541.136C546.318 33 550.852 34.0227 554.739 36.0682C558.625 38.1136 561.648 40.9886 563.807 44.6932C565.966 48.3977 567.045 52.7273 567.045 57.6818C567.045 62.6818 565.932 67.0114 563.705 70.6705C561.5 74.3295 558.398 77.1477 554.398 79.125C550.42 81.1023 545.773 82.0909 540.455 82.0909H525.455C523.798 82.0909 522.455 80.7478 522.455 79.0909V70.3636C522.455 68.7068 523.798 67.3636 525.455 67.3636H536.636C538.864 67.3636 540.761 66.9773 542.33 66.2045C543.92 65.4091 545.136 64.2841 545.977 62.8295C546.841 61.375 547.273 59.6591 547.273 57.6818C547.273 55.6818 546.841 53.9773 545.977 52.5682C545.136 51.1364 543.92 50.0455 542.33 49.2955C540.761 48.5227 538.864 48.1364 536.636 48.1364H532.955C531.298 48.1364 529.955 49.4795 529.955 51.1364V99.8182C529.955 101.475 528.611 102.818 526.955 102.818H514Z" fill="white"/>
<path d="M267.366 37.4165C266.295 35.418 267.743 33 270.01 33H284.25C285.403 33 286.454 33.6609 286.954 34.7001L299.655 61.1178C299.727 61.2681 299.879 61.3636 300.045 61.3636V61.3636C300.212 61.3636 300.364 61.2681 300.436 61.1178L313.137 34.7001C313.637 33.6609 314.688 33 315.841 33H330.081C332.348 33 333.796 35.418 332.725 37.4165L309.81 80.2C309.577 80.6357 309.455 81.1222 309.455 81.6165V99.8182C309.455 101.475 308.111 102.818 306.455 102.818H293.636C291.98 102.818 290.636 101.475 290.636 99.8182V81.6165C290.636 81.1222 290.514 80.6357 290.281 80.2L267.366 37.4165Z" fill="white"/>
<path d="M45 48.2727C43.3431 48.2727 42 46.9296 42 45.2727V36C42 34.3431 43.3431 33 45 33H99.6818C101.339 33 102.682 34.3431 102.682 36V45.2727C102.682 46.9296 101.339 48.2727 99.6818 48.2727H84.6818C83.025 48.2727 81.6818 49.6159 81.6818 51.2727V99.8182C81.6818 101.475 80.3387 102.818 78.6818 102.818H66C64.3431 102.818 63 101.475 63 99.8182V51.2727C63 49.6159 61.6569 48.2727 60 48.2727H45Z" fill="white"/>
</svg>
