<svg width="96" height="96" viewBox="0 0 96 96" fill="none" xmlns="http://www.w3.org/2000/svg">
<path d="M96 48C96 74.5097 74.5097 96 48 96C21.4903 96 0 74.5097 0 48C0 21.4903 21.4903 0 48 0C74.5097 0 96 21.4903 96 48Z" fill="#090A30"/>
<path d="M69.123 37.6813C69.123 36.0022 70.4842 34.641 72.1634 34.641V34.641C73.8425 34.641 75.2037 36.0022 75.2037 37.6813V59.0556C75.2037 60.7347 73.8425 62.0959 72.1634 62.0959V62.0959C70.4842 62.0959 69.123 60.7347 69.123 59.0556V37.6813Z" fill="white"/>
<path d="M70.2842 57.062C71.644 56.077 73.5449 56.3808 74.5299 57.7406V57.7406C75.515 59.1004 75.2111 61.0013 73.8513 61.9864L62.699 70.065C61.3392 71.05 59.4383 70.7462 58.4532 69.3864V69.3864C57.4682 68.0266 57.772 66.1257 59.1318 65.1406L70.2842 57.062Z" fill="white"/>
<path d="M44.6896 17.0869C46.6366 15.6624 49.2825 15.6651 51.2266 17.0935L72.838 32.9722C75.8549 35.1888 75.8422 39.7001 72.813 41.8998L51.3669 57.4727C49.4265 58.8816 46.7991 58.8789 44.8617 57.4659L23.2504 41.705C20.2258 39.4992 20.2224 34.988 23.2436 32.7775L44.6896 17.0869Z" fill="white"/>
<path d="M51.0652 55.1862C51.0652 53.5071 49.704 52.1459 48.0249 52.1459V52.1459C46.3458 52.1459 44.9846 53.5071 44.9846 55.1862V76.5605C44.9846 78.2396 46.3458 79.6008 48.0249 79.6008V79.6008C49.704 79.6008 51.0652 78.2396 51.0652 76.5605V55.1862Z" fill="white"/>
<path d="M27.0865 37.6813C27.0865 36.0022 25.7254 34.641 24.0462 34.641V34.641C22.3671 34.641 21.0059 36.0022 21.0059 37.6813V49.1055C21.0059 50.7846 22.3671 52.1458 24.0462 52.1458V52.1458C25.7254 52.1458 27.0865 50.7846 27.0865 49.1055V37.6813Z" fill="white"/>
<path d="M28.1607 58.6602C26.8008 57.6751 24.9 57.9789 23.9149 59.3388V59.3388C22.9299 60.6986 23.2337 62.5995 24.5935 63.5845L46.1493 79.1993C47.5092 80.1844 49.4101 79.8805 50.3951 78.5207V78.5207C51.3801 77.1609 51.0763 75.26 49.7165 74.275L28.1607 58.6602Z" fill="white"/>
</svg>
