<svg width="1440" height="756" viewBox="0 0 1440 756" fill="none" xmlns="http://www.w3.org/2000/svg">
<rect width="1440" height="756" fill="white"/>
<path d="M109.833 282.125C108.329 270.182 117.639 259.626 129.676 259.626H202.067C212.146 259.626 220.651 267.127 221.91 277.128L231.066 349.834C232.57 361.777 223.26 372.333 211.223 372.333H138.832C128.753 372.333 120.248 364.832 118.989 354.832L109.833 282.125Z" fill="black"/>
<path d="M129.035 406.937C127.531 394.994 136.841 384.438 148.878 384.438H221.269C231.348 384.438 239.853 391.939 241.112 401.939L250.268 474.646C251.772 486.589 242.462 497.145 230.424 497.145H158.034C147.954 497.145 139.45 489.644 138.191 479.643L129.035 406.937Z" fill="black"/>
<path d="M236.732 282.125C235.228 270.182 244.538 259.626 256.576 259.626H328.966C339.046 259.626 347.55 267.127 348.809 277.128L357.965 349.834C359.469 361.777 350.159 372.333 338.122 372.333H265.731C255.652 372.333 247.147 364.832 245.888 354.832L236.732 282.125Z" fill="black"/>
<path d="M255.934 406.937C254.43 394.994 263.74 384.438 275.777 384.438H348.168C358.247 384.438 366.752 391.939 368.011 401.939L377.167 474.646C378.671 486.589 369.361 497.145 357.323 497.145H284.933C274.853 497.145 266.349 489.644 265.09 479.643L255.934 406.937Z" fill="black"/>
<path d="M1221 461C1217.69 461 1215 458.314 1215 455V304C1215 300.686 1217.69 298 1221 298H1327C1330.31 298 1333 300.686 1333 304V327.656C1333 330.97 1330.31 333.656 1327 333.656H1265.45C1262.14 333.656 1259.45 336.343 1259.45 339.656V355.672C1259.45 358.986 1262.14 361.672 1265.45 361.672H1320.92C1324.24 361.672 1326.92 364.358 1326.92 367.672V391.328C1326.92 394.642 1324.24 397.328 1320.92 397.328H1265.45C1262.14 397.328 1259.45 400.014 1259.45 403.328V419.344C1259.45 422.657 1262.14 425.344 1265.45 425.344H1326.68C1329.99 425.344 1332.68 428.03 1332.68 431.344V455C1332.68 458.314 1329.99 461 1326.68 461H1221Z" fill="black"/>
<path d="M1068 461C1064.69 461 1062 458.314 1062 455V304C1062 300.686 1064.69 298 1068 298H1174C1177.31 298 1180 300.686 1180 304V327.656C1180 330.97 1177.31 333.656 1174 333.656H1112.45C1109.14 333.656 1106.45 336.343 1106.45 339.656V355.672C1106.45 358.986 1109.14 361.672 1112.45 361.672H1167.92C1171.24 361.672 1173.92 364.358 1173.92 367.672V391.328C1173.92 394.642 1171.24 397.328 1167.92 397.328H1112.45C1109.14 397.328 1106.45 400.014 1106.45 403.328V419.344C1106.45 422.657 1109.14 425.344 1112.45 425.344H1173.68C1176.99 425.344 1179.68 428.03 1179.68 431.344V455C1179.68 458.314 1176.99 461 1173.68 461H1068Z" fill="black"/>
<path d="M916 461C912.686 461 910 458.314 910 455V304C910 300.686 912.686 298 916 298H1021C1024.31 298 1027 300.686 1027 304V327.656C1027 330.97 1024.31 333.656 1021 333.656H960.073C956.759 333.656 954.073 336.343 954.073 339.656V355.672C954.073 358.986 956.759 361.672 960.073 361.672H1014.98C1018.29 361.672 1020.98 364.358 1020.98 367.672V391.328C1020.98 394.642 1018.29 397.328 1014.98 397.328H960.073C956.759 397.328 954.073 400.014 954.073 403.328V419.344C954.073 422.657 956.759 425.344 960.073 425.344H1020.68C1024 425.344 1026.68 428.03 1026.68 431.344V455C1026.68 458.314 1024 461 1020.68 461H916Z" fill="black"/>
<path d="M748.769 461C745.455 461 742.769 458.314 742.769 455V301C742.769 297.686 745.455 295 748.769 295H814.421C826.742 295 837.522 297.432 846.762 302.295C856.002 307.158 863.189 313.994 868.323 322.802C873.456 331.61 876.023 341.904 876.023 353.684C876.023 365.572 873.375 375.866 868.079 384.565C862.838 393.265 855.462 399.966 845.952 404.667C836.495 409.368 825.445 411.719 812.8 411.719H776.003C772.69 411.719 770.003 409.032 770.003 405.719V382.703C770.003 379.389 772.69 376.703 776.003 376.703H803.722C809.018 376.703 813.53 375.785 817.258 373.947C821.041 372.056 823.932 369.381 825.931 365.923C827.984 362.465 829.011 358.385 829.011 353.684C829.011 348.928 827.984 344.876 825.931 341.525C823.932 338.121 821.041 335.527 817.258 333.744C813.53 331.907 809.018 330.988 803.722 330.988H793.835C790.522 330.988 787.835 333.675 787.835 336.988V455C787.835 458.314 785.149 461 781.835 461H748.769Z" fill="black"/>
<path d="M566.16 303.833C564.02 299.836 566.915 295 571.45 295H607.911C610.217 295 612.319 296.322 613.318 298.4L643.824 361.853C643.996 362.21 644.357 362.438 644.754 362.438V362.438C645.15 362.438 645.511 362.21 645.683 361.853L676.189 298.4C677.189 296.322 679.291 295 681.597 295H718.058C722.592 295 725.488 299.836 723.347 303.833L667.836 407.474C667.369 408.345 667.125 409.318 667.125 410.306V455C667.125 458.314 664.438 461 661.125 461H628.383C625.069 461 622.383 458.314 622.383 455V410.306C622.383 409.318 622.138 408.345 621.672 407.474L566.16 303.833Z" fill="black"/>
<path d="M413 331.313C409.686 331.313 407 328.626 407 325.313V301C407 297.686 409.686 295 413 295H545.277C548.591 295 551.277 297.686 551.277 301V325.313C551.277 328.626 548.591 331.313 545.277 331.313H507.348C504.034 331.313 501.348 333.999 501.348 337.313V455C501.348 458.314 498.661 461 495.348 461H462.93C459.616 461 456.93 458.314 456.93 455V337.313C456.93 333.999 454.243 331.313 450.93 331.313H413Z" fill="black"/>
</svg>
